<?xml version="1.0" encoding="UTF-8"?>
<!DOCTYPE svg PUBLIC "-//W3C//DTD SVG 1.1//EN" "http://www.w3.org/Graphics/SVG/1.1/DTD/svg11.dtd">
<svg xmlns="http://www.w3.org/2000/svg" version="1.1" width="700px" height="113px" style="shape-rendering:geometricPrecision; text-rendering:geometricPrecision; image-rendering:optimizeQuality; fill-rule:evenodd; clip-rule:evenodd" xmlns:xlink="http://www.w3.org/1999/xlink">
<g><path style="opacity:0.317" fill="#00a4ff" d="M 52.5,5.5 C 54.1667,5.5 55.8333,5.5 57.5,5.5C 57.5,7.16667 57.5,8.83333 57.5,10.5C 55.8333,10.5 54.1667,10.5 52.5,10.5C 52.5,8.83333 52.5,7.16667 52.5,5.5 Z"/></g>
<g><path style="opacity:0.004" fill="#000000" d="M 88.5,8.5 C 89.5,8.5 90.5,8.5 91.5,8.5C 91.7678,10.099 91.4345,11.4324 90.5,12.5C 89.6554,11.3285 88.9887,9.99522 88.5,8.5 Z"/></g>
<g><path style="opacity:0.01" fill="#535453" d="M 109.5,8.5 C 110.833,8.5 112.167,8.5 113.5,8.5C 113.5,9.83333 113.5,11.1667 113.5,12.5C 113.5,11.1667 113.5,9.83333 113.5,8.5C 112.167,8.5 110.833,8.5 109.5,8.5 Z"/></g>
<g><path style="opacity:0.96" fill="#6a55fc" d="M 88.5,8.5 C 88.9887,9.99522 89.6554,11.3285 90.5,12.5C 91.5389,15.9213 93.5389,18.5879 96.5,20.5C 96.5,22.1667 96.5,23.8333 96.5,25.5C 96.5,26.8333 96.5,28.1667 96.5,29.5C 98.7354,29.2053 100.735,29.5386 102.5,30.5C 100.338,31.1276 98.6718,32.461 97.5,34.5C 96.5,35.1667 95.5,35.8333 94.5,36.5C 93.4181,34.6614 92.5847,32.6614 92,30.5C 90.9887,29.6634 89.8221,29.33 88.5,29.5C 88.6602,27.8008 88.4935,26.1341 88,24.5C 84.6638,28.6678 81.1638,32.6678 77.5,36.5C 74.7072,33.5972 71.3738,31.4305 67.5,30C 66.4829,28.9505 66.3162,27.7839 67,26.5C 75.2258,22.6073 81.0591,16.4406 84.5,8C 85.9285,7.42094 87.2618,7.58761 88.5,8.5 Z"/></g>
<g><path style="opacity:0.651" fill="#0099f6" d="M 97.5,34.5 C 98.6718,32.461 100.338,31.1276 102.5,30.5C 104.946,29.6079 105.612,28.1079 104.5,26C 101.854,25.5026 99.1873,25.3359 96.5,25.5C 96.5,23.8333 96.5,22.1667 96.5,20.5C 96.5,19.5 96.5,18.5 96.5,17.5C 97.8333,17.5 99.1667,17.5 100.5,17.5C 100.5,16.1667 100.5,14.8333 100.5,13.5C 101.833,13.5 103.167,13.5 104.5,13.5C 104.5,16.1667 104.5,18.8333 104.5,21.5C 106.167,21.5 107.833,21.5 109.5,21.5C 109.5,24.5 109.5,27.5 109.5,30.5C 107.833,30.5 106.167,30.5 104.5,30.5C 104.5,31.8333 104.5,33.1667 104.5,34.5C 102.167,34.5 99.8333,34.5 97.5,34.5 Z"/></g>
<g><path style="opacity:0.004" fill="#000000" d="M 113.5,13.5 C 114.833,13.5 116.167,13.5 117.5,13.5C 117.5,14.5 117.5,15.5 117.5,16.5C 116.167,16.5 114.833,16.5 113.5,16.5C 113.5,15.5 113.5,14.5 113.5,13.5 Z"/></g>
<g><path style="opacity:0.004" fill="#fe00ff" d="M 21.5,17.5 C 21.5,18.8333 21.5,20.1667 21.5,21.5C 20.1667,21.5 18.8333,21.5 17.5,21.5C 17.5,20.1667 17.5,18.8333 17.5,17.5C 18.8333,17.5 20.1667,17.5 21.5,17.5 Z"/></g>
<g><path style="opacity:0.061" fill="#a05efe" d="M 21.5,17.5 C 24.5,17.5 27.5,17.5 30.5,17.5C 30.5,18.8333 30.5,20.1667 30.5,21.5C 27.5,21.5 24.5,21.5 21.5,21.5C 21.5,20.1667 21.5,18.8333 21.5,17.5 Z"/></g>
<g><path style="opacity:0.533" fill="#099eff" d="M 21.5,21.5 C 24.5,21.5 27.5,21.5 30.5,21.5C 30.5,22.8333 30.5,24.1667 30.5,25.5C 29.1667,25.5 27.8333,25.5 26.5,25.5C 26.5,27.1667 26.5,28.8333 26.5,30.5C 24.8333,30.5 23.1667,30.5 21.5,30.5C 21.5,27.5 21.5,24.5 21.5,21.5 Z"/></g>
<g><path style="opacity:0.027" fill="#494866" d="M 117.5,21.5 C 117.5,25.8333 117.5,30.1667 117.5,34.5C 116.167,34.5 114.833,34.5 113.5,34.5C 113.5,30.1667 113.5,25.8333 113.5,21.5C 114.833,21.5 116.167,21.5 117.5,21.5 Z"/></g>
<g><path style="opacity:0.055" fill="#9f5efe" d="M 17.5,21.5 C 18.8333,21.5 20.1667,21.5 21.5,21.5C 21.5,24.5 21.5,27.5 21.5,30.5C 20.1667,30.5 18.8333,30.5 17.5,30.5C 17.5,27.5 17.5,24.5 17.5,21.5 Z"/></g>
<g><path style="opacity:0.977" fill="#7568fe" d="M 51.5,33.5 C 39.8608,45.4733 28.1941,57.4733 16.5,69.5C 12.6112,67.3034 8.77788,64.9701 5,62.5C 4.32239,60.4024 4.48905,58.4024 5.5,56.5C 7.2838,56.1075 8.95047,55.4408 10.5,54.5C 14.4275,53.2259 17.4275,50.8926 19.5,47.5C 21.3407,46.5977 22.674,45.2644 23.5,43.5C 25.7966,41.7059 27.9633,39.7059 30,37.5C 33.3925,31.8696 36.8925,26.3696 40.5,21C 42.1124,20.2797 43.6124,20.4464 45,21.5C 46.9249,25.6867 49.0916,29.6867 51.5,33.5 Z"/></g>
<g><path style="opacity:0.1" fill="#9b66fe" d="M 30.5,25.5 C 30.5,27.1667 30.5,28.8333 30.5,30.5C 29.1667,30.5 27.8333,30.5 26.5,30.5C 26.5,28.8333 26.5,27.1667 26.5,25.5C 27.8333,25.5 29.1667,25.5 30.5,25.5 Z"/></g>
<g><path style="opacity:0.998" fill="#0181ff" d="M 96.5,25.5 C 99.1873,25.3359 101.854,25.5026 104.5,26C 105.612,28.1079 104.946,29.6079 102.5,30.5C 100.735,29.5386 98.7354,29.2053 96.5,29.5C 96.5,28.1667 96.5,26.8333 96.5,25.5 Z"/></g>
<g><path style="opacity:0.963" fill="#684cfe" d="M 94.5,36.5 C 94.1667,37.1667 93.8333,37.8333 93.5,38.5C 92.0937,38.9731 91.427,39.9731 91.5,41.5C 90.2745,42.937 89.2745,44.6036 88.5,46.5C 86.9547,47.4519 85.288,47.7852 83.5,47.5C 82.3768,43.3713 80.3768,39.7046 77.5,36.5C 81.1638,32.6678 84.6638,28.6678 88,24.5C 88.4935,26.1341 88.6602,27.8008 88.5,29.5C 89.8221,29.33 90.9887,29.6634 92,30.5C 92.5847,32.6614 93.4181,34.6614 94.5,36.5 Z"/></g>
<g><path style="opacity:0.075" fill="#4e3866" d="M 91.5,8.5 C 97.5,8.5 103.5,8.5 109.5,8.5C 109.5,9.83333 109.5,11.1667 109.5,12.5C 110.833,12.5 112.167,12.5 113.5,12.5C 113.5,12.8333 113.5,13.1667 113.5,13.5C 113.5,14.5 113.5,15.5 113.5,16.5C 114.833,16.5 116.167,16.5 117.5,16.5C 117.5,18.1667 117.5,19.8333 117.5,21.5C 116.167,21.5 114.833,21.5 113.5,21.5C 113.5,25.8333 113.5,30.1667 113.5,34.5C 113.5,35.8333 113.5,37.1667 113.5,38.5C 112.167,38.5 110.833,38.5 109.5,38.5C 107.833,38.5 106.167,38.5 104.5,38.5C 104.5,39.8333 104.5,41.1667 104.5,42.5C 101.833,42.5 99.1667,42.5 96.5,42.5C 96.5,41.1667 96.5,39.8333 96.5,38.5C 95.5,38.5 94.5,38.5 93.5,38.5C 93.8333,37.8333 94.1667,37.1667 94.5,36.5C 95.5,35.8333 96.5,35.1667 97.5,34.5C 99.8333,34.5 102.167,34.5 104.5,34.5C 104.5,33.1667 104.5,31.8333 104.5,30.5C 106.167,30.5 107.833,30.5 109.5,30.5C 109.5,27.5 109.5,24.5 109.5,21.5C 107.833,21.5 106.167,21.5 104.5,21.5C 104.5,18.8333 104.5,16.1667 104.5,13.5C 103.167,13.5 101.833,13.5 100.5,13.5C 100.5,14.8333 100.5,16.1667 100.5,17.5C 99.1667,17.5 97.8333,17.5 96.5,17.5C 96.5,18.5 96.5,19.5 96.5,20.5C 93.5389,18.5879 91.5389,15.9213 90.5,12.5C 91.4345,11.4324 91.7678,10.099 91.5,8.5 Z"/></g>
<g><path style="opacity:0.004" fill="#000000" d="M 113.5,34.5 C 114.833,34.5 116.167,34.5 117.5,34.5C 117.5,35.8333 117.5,37.1667 117.5,38.5C 116.167,38.5 114.833,38.5 113.5,38.5C 113.5,37.1667 113.5,35.8333 113.5,34.5 Z"/></g>
<g><path style="opacity:0.011" fill="#535453" d="M 93.5,38.5 C 94.5,38.5 95.5,38.5 96.5,38.5C 96.5,39.8333 96.5,41.1667 96.5,42.5C 94.5853,42.7845 92.9187,42.4511 91.5,41.5C 91.427,39.9731 92.0937,38.9731 93.5,38.5 Z"/></g>
<g><path style="opacity:0.012" fill="#4f4f52" d="M 109.5,38.5 C 109.5,39.8333 109.5,41.1667 109.5,42.5C 107.833,42.5 106.167,42.5 104.5,42.5C 104.5,41.1667 104.5,39.8333 104.5,38.5C 106.167,38.5 107.833,38.5 109.5,38.5 Z"/></g>
<g><path style="opacity:0.004" fill="#000000" d="M 109.5,38.5 C 110.833,38.5 112.167,38.5 113.5,38.5C 113.5,39.8333 113.5,41.1667 113.5,42.5C 112.167,42.5 110.833,42.5 109.5,42.5C 109.5,41.1667 109.5,39.8333 109.5,38.5 Z"/></g>
<g><path style="opacity:0.974" fill="#6f5dff" d="M 51.5,33.5 C 53.7867,37.1219 56.4534,40.4552 59.5,43.5C 49.3723,54.7967 39.039,65.9634 28.5,77C 30.1341,77.4935 31.8008,77.6602 33.5,77.5C 33.5,78.8333 33.5,80.1667 33.5,81.5C 32.1667,81.5 30.8333,81.5 29.5,81.5C 28.2402,79.6329 26.5735,78.2995 24.5,77.5C 22.1395,74.4728 19.4729,71.8062 16.5,69.5C 28.1941,57.4733 39.8608,45.4733 51.5,33.5 Z"/></g>
<g><path style="opacity:0.112" fill="#404045" d="M 23.5,43.5 C 22.674,45.2644 21.3407,46.5977 19.5,47.5C 19.5,46.1667 19.5,44.8333 19.5,43.5C 16.5,43.5 13.5,43.5 10.5,43.5C 10.5,44.8333 10.5,46.1667 10.5,47.5C 9.16667,47.5 7.83333,47.5 6.5,47.5C 6.5,49.1667 6.5,50.8333 6.5,52.5C 8.48324,52.1568 9.81658,52.8235 10.5,54.5C 8.95047,55.4408 7.2838,56.1075 5.5,56.5C 4.5,56.5 3.5,56.5 2.5,56.5C 2.5,52.1667 2.5,47.8333 2.5,43.5C 3.83333,43.5 5.16667,43.5 6.5,43.5C 6.5,42.1667 6.5,40.8333 6.5,39.5C 12.1667,39.5 17.8333,39.5 23.5,39.5C 23.5,40.8333 23.5,42.1667 23.5,43.5 Z"/></g>
<g><path style="opacity:0.983" fill="#6a54ff" d="M 59.5,43.5 C 61.8333,45.1667 63.8333,47.1667 65.5,49.5C 59.0352,55.4639 52.7019,61.6306 46.5,68C 49.1168,68.8215 51.7835,69.3215 54.5,69.5C 54.5,70.8333 54.5,72.1667 54.5,73.5C 51.4816,73.3354 48.4816,73.502 45.5,74C 41.9218,76.2174 38.5885,78.7174 35.5,81.5C 33.9291,82.3094 32.2624,82.6427 30.5,82.5C 30.1667,82.5 29.8333,82.5 29.5,82.5C 29.5,82.1667 29.5,81.8333 29.5,81.5C 30.8333,81.5 32.1667,81.5 33.5,81.5C 33.5,80.1667 33.5,78.8333 33.5,77.5C 31.8008,77.6602 30.1341,77.4935 28.5,77C 39.039,65.9634 49.3723,54.7967 59.5,43.5 Z"/></g>
<g><path style="opacity:0.706" fill="#0098f7" d="M 19.5,47.5 C 17.4275,50.8926 14.4275,53.2259 10.5,54.5C 9.81658,52.8235 8.48324,52.1568 6.5,52.5C 6.5,50.8333 6.5,49.1667 6.5,47.5C 7.83333,47.5 9.16667,47.5 10.5,47.5C 10.5,46.1667 10.5,44.8333 10.5,43.5C 13.5,43.5 16.5,43.5 19.5,43.5C 19.5,44.8333 19.5,46.1667 19.5,47.5 Z"/></g>
<g><path style="opacity:0.957" fill="#4516ff" d="M 157.5,73.5 C 158.089,80.485 158.422,87.485 158.5,94.5C 156.167,94.5 153.833,94.5 151.5,94.5C 149.16,85.4749 146.66,76.4749 144,67.5C 142.177,76.4246 140.677,85.4246 139.5,94.5C 135.167,94.5 130.833,94.5 126.5,94.5C 128.616,77.8045 130.949,61.1378 133.5,44.5C 138.544,44.1725 143.544,44.5059 148.5,45.5C 151.134,55.0649 154.134,64.3983 157.5,73.5 Z"/></g>
<g><path style="opacity:0.953" fill="#4827ff" d="M 158.5,94.5 C 158.422,87.485 158.089,80.485 157.5,73.5C 159.853,64.0905 162.519,54.7572 165.5,45.5C 170.456,44.5059 175.456,44.1725 180.5,44.5C 182.834,61.1678 185.167,77.8345 187.5,94.5C 182.901,94.8 178.401,94.4667 174,93.5C 172.946,84.452 171.612,75.452 170,66.5C 167.188,75.7664 164.688,85.0998 162.5,94.5C 161.167,94.5 159.833,94.5 158.5,94.5 Z"/></g>
<g><path style="opacity:0.961" fill="#4c33ff" d="M 194.5,44.5 C 199.5,44.5 204.5,44.5 209.5,44.5C 209.5,61.1667 209.5,77.8333 209.5,94.5C 204.5,94.5 199.5,94.5 194.5,94.5C 194.5,77.8333 194.5,61.1667 194.5,44.5 Z"/></g>
<g><path style="opacity:0.972" fill="#5b4eff" d="M 284.5,63.5 C 284.5,67.1667 284.5,70.8333 284.5,74.5C 282.167,74.5 279.833,74.5 277.5,74.5C 277.5,81.1667 277.5,87.8333 277.5,94.5C 272.833,94.5 268.167,94.5 263.5,94.5C 263.5,77.8333 263.5,61.1667 263.5,44.5C 268.167,44.5 272.833,44.5 277.5,44.5C 277.5,50.8333 277.5,57.1667 277.5,63.5C 279.833,63.5 282.167,63.5 284.5,63.5 Z"/></g>
<g><path style="opacity:1" fill="#6258ff" d="M 284.5,74.5 C 284.5,70.8333 284.5,67.1667 284.5,63.5C 288.167,63.5 291.833,63.5 295.5,63.5C 295.5,57.1667 295.5,50.8333 295.5,44.5C 300.167,44.5 304.833,44.5 309.5,44.5C 309.5,61.1667 309.5,77.8333 309.5,94.5C 304.833,94.5 300.167,94.5 295.5,94.5C 295.5,87.8333 295.5,81.1667 295.5,74.5C 291.833,74.5 288.167,74.5 284.5,74.5 Z"/></g>
<g><path style="opacity:0.971" fill="#6961ff" d="M 320.5,44.5 C 331.167,44.5 341.833,44.5 352.5,44.5C 352.5,48.5 352.5,52.5 352.5,56.5C 346.5,56.5 340.5,56.5 334.5,56.5C 334.5,58.5 334.5,60.5 334.5,62.5C 340.167,62.5 345.833,62.5 351.5,62.5C 351.5,66.5 351.5,70.5 351.5,74.5C 345.833,74.5 340.167,74.5 334.5,74.5C 334.5,77.1667 334.5,79.8333 334.5,82.5C 340.5,82.5 346.5,82.5 352.5,82.5C 352.5,86.5 352.5,90.5 352.5,94.5C 341.833,94.5 331.167,94.5 320.5,94.5C 320.5,77.8333 320.5,61.1667 320.5,44.5 Z"/></g>
<g><path style="opacity:0.946" fill="#756cff" d="M 408.5,44.5 C 414.833,44.5 421.167,44.5 427.5,44.5C 432.667,61.1682 438.334,77.6682 444.5,94C 439.467,94.8289 434.467,94.6623 429.5,93.5C 428.518,90.9044 427.851,88.2377 427.5,85.5C 421.132,85.1703 414.798,85.5037 408.5,86.5C 407.518,89.0956 406.851,91.7623 406.5,94.5C 401.456,94.8275 396.456,94.4941 391.5,93.5C 397.371,77.2183 403.038,60.8849 408.5,44.5 Z M 417.5,54.5 C 419.587,61.3156 421.921,68.1489 424.5,75C 420.167,75.6667 415.833,75.6667 411.5,75C 414.003,68.3233 416.003,61.4899 417.5,54.5 Z"/></g>
<g><path style="opacity:0.949" fill="#6960ff" d="M 479.5,87.5 C 480.085,81.8219 480.751,76.1553 481.5,70.5C 482.558,71.6002 483.392,72.9336 484,74.5C 484.5,64.5056 484.666,54.5056 484.5,44.5C 489.167,44.5 493.833,44.5 498.5,44.5C 498.5,61.1667 498.5,77.8333 498.5,94.5C 493.456,94.8275 488.456,94.4941 483.5,93.5C 481.748,91.7541 480.415,89.7541 479.5,87.5 Z"/></g>
<g><path style="opacity:0.967" fill="#5546ff" d="M 578.5,44.5 C 581.135,61.1711 581.135,77.8377 578.5,94.5C 574.833,94.5 571.167,94.5 567.5,94.5C 567.5,77.8333 567.5,61.1667 567.5,44.5C 571.167,44.5 574.833,44.5 578.5,44.5 Z"/></g>
<g><path style="opacity:0.992" fill="#5241ff" d="M 578.5,44.5 C 585.5,44.5 592.5,44.5 599.5,44.5C 599.5,48.5 599.5,52.5 599.5,56.5C 593.5,56.5 587.5,56.5 581.5,56.5C 581.5,58.5 581.5,60.5 581.5,62.5C 587.167,62.5 592.833,62.5 598.5,62.5C 598.5,66.5 598.5,70.5 598.5,74.5C 592.833,74.5 587.167,74.5 581.5,74.5C 581.5,77.1667 581.5,79.8333 581.5,82.5C 587.5,82.5 593.5,82.5 599.5,82.5C 599.5,86.5 599.5,90.5 599.5,94.5C 592.5,94.5 585.5,94.5 578.5,94.5C 581.135,77.8377 581.135,61.1711 578.5,44.5 Z"/></g>
<g><path style="opacity:1" fill="#4d35ff" d="M 606.5,44.5 C 611.167,44.5 615.833,44.5 620.5,44.5C 620.5,57.1667 620.5,69.8333 620.5,82.5C 626.167,82.5 631.833,82.5 637.5,82.5C 637.5,86.5 637.5,90.5 637.5,94.5C 627.167,94.5 616.833,94.5 606.5,94.5C 606.5,77.8333 606.5,61.1667 606.5,44.5 Z"/></g>
<g><path style="opacity:0.952" fill="#4517ff" d="M 664.5,43.5 C 689.319,43.1494 699.486,55.1494 695,79.5C 688.754,91.2098 678.921,96.5432 665.5,95.5C 665.5,91.1667 665.5,86.8333 665.5,82.5C 675.403,83.9491 681.07,79.6158 682.5,69.5C 681.07,59.3842 675.403,55.0509 665.5,56.5C 665.769,52.0685 665.436,47.7352 664.5,43.5 Z"/></g>
<g><path style="opacity:0.915" fill="#6157ff" d="M 538.5,83.5 C 538.048,87.5457 537.381,91.5457 536.5,95.5C 514.055,95.8876 503.889,84.8876 506,62.5C 511.905,47.1254 523.071,40.9588 539.5,44C 546.456,45.6386 551.789,49.4719 555.5,55.5C 551.388,57.6397 547.221,59.6397 543,61.5C 535.954,53.5185 528.954,53.5185 522,61.5C 518.348,68.738 519.182,75.4046 524.5,81.5C 528.84,84.3675 533.507,85.0342 538.5,83.5 Z"/></g>
<g><path style="opacity:0.919" fill="#7067ff" d="M 481.5,70.5 C 480.751,76.1553 480.085,81.8219 479.5,87.5C 473.531,80.2531 468.031,72.5864 463,64.5C 462.5,74.4944 462.334,84.4944 462.5,94.5C 457.833,94.5 453.167,94.5 448.5,94.5C 448.5,77.8333 448.5,61.1667 448.5,44.5C 453.544,44.1725 458.544,44.5059 463.5,45.5C 469.525,53.8515 475.525,62.1849 481.5,70.5 Z"/></g>
<g><path style="opacity:0.926" fill="#5240ff" d="M 236.5,43.5 C 243.305,42.853 249.805,43.853 256,46.5C 256.667,51.5 256.667,56.5 256,61.5C 248.584,53.6328 241.251,53.6328 234,61.5C 229.489,71.6485 232.322,78.8152 242.5,83C 247.804,83.2683 252.304,81.435 256,77.5C 256.667,82.5 256.667,87.5 256,92.5C 241.195,98.9671 229.195,95.6338 220,82.5C 213.523,64.1455 219.023,51.1455 236.5,43.5 Z"/></g>
<g><path style="opacity:0.95" fill="#4826ff" d="M 664.5,43.5 C 665.436,47.7352 665.769,52.0685 665.5,56.5C 657.007,61.4588 654.84,68.4588 659,77.5C 660.758,79.7655 662.925,81.4322 665.5,82.5C 665.5,86.8333 665.5,91.1667 665.5,95.5C 648.399,91.5679 640.899,80.9012 643,63.5C 646.46,52.874 653.627,46.2073 664.5,43.5 Z"/></g>
<g><path style="opacity:1" fill="#7168ff" d="M 359.5,44.5 C 364.167,44.5 368.833,44.5 373.5,44.5C 373.5,57.1667 373.5,69.8333 373.5,82.5C 379.167,82.5 384.833,82.5 390.5,82.5C 390.5,86.5 390.5,90.5 390.5,94.5C 380.167,94.5 369.833,94.5 359.5,94.5C 359.5,77.8333 359.5,61.1667 359.5,44.5 Z"/></g>
<g><path style="opacity:0.056" fill="#00a4ff" d="M 98.5,56.5 C 102.226,56.1774 105.893,56.5108 109.5,57.5C 108.145,59.5212 106.479,61.1879 104.5,62.5C 99.3595,61.5119 94.0262,61.1786 88.5,61.5C 85.7131,60.5233 82.7131,60.19 79.5,60.5C 79.5,59.5 79.5,58.5 79.5,57.5C 85.6446,56.5098 91.9779,56.1765 98.5,56.5 Z"/></g>
<g><path style="opacity:0.29" fill="#00a1ff" d="M 112.5,56.5 C 113.485,60.6344 113.818,64.9677 113.5,69.5C 110.5,69.5 107.5,69.5 104.5,69.5C 104.5,70.8333 104.5,72.1667 104.5,73.5C 103.167,73.5 101.833,73.5 100.5,73.5C 100.5,74.8333 100.5,76.1667 100.5,77.5C 97.8333,77.5 95.1667,77.5 92.5,77.5C 92.5,78.5 92.5,79.5 92.5,80.5C 91.2719,79.6935 90.2719,78.6935 89.5,77.5C 89.281,76.325 89.6143,75.325 90.5,74.5C 98.8402,71.0884 106.007,66.0884 112,59.5C 112.483,58.552 112.649,57.552 112.5,56.5 Z"/></g>
<g><path style="opacity:0.041" fill="#0391ff" d="M 79.5,60.5 C 82.7131,60.19 85.7131,60.5233 88.5,61.5C 88.5,62.8333 88.5,64.1667 88.5,65.5C 83.8333,65.5 79.1667,65.5 74.5,65.5C 75.6002,64.4415 76.9336,63.6082 78.5,63C 79.2524,62.3292 79.5858,61.4959 79.5,60.5 Z"/></g>
<g><path style="opacity:0.939" fill="#5c50ff" d="M 536.5,95.5 C 537.381,91.5457 538.048,87.5457 538.5,83.5C 541.326,82.4029 543.326,80.4029 544.5,77.5C 540.217,76.5078 535.884,76.1744 531.5,76.5C 531.5,72.8333 531.5,69.1667 531.5,65.5C 540.833,65.5 550.167,65.5 559.5,65.5C 560.711,82.5931 553.044,92.5931 536.5,95.5 Z"/></g>
<g><path style="opacity:0.015" fill="#00abff" d="M 71.5,67.5 C 71.1788,69.0481 70.1788,69.7148 68.5,69.5C 68.9731,68.0937 69.9731,67.427 71.5,67.5 Z"/></g>
<g><path style="opacity:0.05" fill="#ae63fe" d="M 9.5,69.5 C 9.5,70.8333 9.5,72.1667 9.5,73.5C 7.83333,73.5 6.16667,73.5 4.5,73.5C 4.5,72.1667 4.5,70.8333 4.5,69.5C 6.16667,68.1667 7.83333,68.1667 9.5,69.5 Z"/></g>
<g><path style="opacity:0.004" fill="#fe00ff" d="M 4.5,69.5 C 4.5,70.8333 4.5,72.1667 4.5,73.5C 3.16667,73.5 1.83333,73.5 0.5,73.5C 0.5,72.1667 0.5,70.8333 0.5,69.5C 1.83333,69.5 3.16667,69.5 4.5,69.5 Z"/></g>
<g><path style="opacity:0.004" fill="#fe00ff" d="M 9.5,69.5 C 10.8333,69.5 12.1667,69.5 13.5,69.5C 13.5,70.8333 13.5,72.1667 13.5,73.5C 12.1667,73.5 10.8333,73.5 9.5,73.5C 9.5,72.1667 9.5,70.8333 9.5,69.5 Z"/></g>
<g><path style="opacity:0.95" fill="#664aff" d="M 65.5,49.5 C 70.1393,52.1548 74.806,54.8215 79.5,57.5C 79.5,58.5 79.5,59.5 79.5,60.5C 79.5858,61.4959 79.2524,62.3292 78.5,63C 76.9336,63.6082 75.6002,64.4415 74.5,65.5C 73.2905,65.9321 72.2905,66.5987 71.5,67.5C 69.9731,67.427 68.9731,68.0937 68.5,69.5C 61.4317,74.2333 55.765,80.2333 51.5,87.5C 46.4327,89.8549 41.0994,91.1883 35.5,91.5C 33.5675,88.6339 31.9009,85.6339 30.5,82.5C 32.2624,82.6427 33.9291,82.3094 35.5,81.5C 38.5885,78.7174 41.9218,76.2174 45.5,74C 48.4816,73.502 51.4816,73.3354 54.5,73.5C 54.5,72.1667 54.5,70.8333 54.5,69.5C 51.7835,69.3215 49.1168,68.8215 46.5,68C 52.7019,61.6306 59.0352,55.4639 65.5,49.5 Z"/></g>
<g><path style="opacity:0.049" fill="#9e5fff" d="M -0.5,73.5 C -0.166667,73.5 0.166667,73.5 0.5,73.5C 1.83333,73.5 3.16667,73.5 4.5,73.5C 4.5,76.5 4.5,79.5 4.5,82.5C 2.83333,82.5 1.16667,82.5 -0.5,82.5C -0.5,79.5 -0.5,76.5 -0.5,73.5 Z"/></g>
<g><path style="opacity:0.345" fill="#02a1ff" d="M 4.5,73.5 C 6.16667,73.5 7.83333,73.5 9.5,73.5C 9.5,76.5 9.5,79.5 9.5,82.5C 7.83333,82.5 6.16667,82.5 4.5,82.5C 4.5,79.5 4.5,76.5 4.5,73.5 Z"/></g>
<g><path style="opacity:0.052" fill="#9d5ffe" d="M 9.5,73.5 C 10.8333,73.5 12.1667,73.5 13.5,73.5C 13.5,76.1667 13.5,78.8333 13.5,81.5C 13.5,82.1667 13.1667,82.5 12.5,82.5C 11.5,82.5 10.5,82.5 9.5,82.5C 9.5,79.5 9.5,76.5 9.5,73.5 Z"/></g>
<g><path style="opacity:0.4" fill="#009eff" d="M 80.5,81.5 C 78.7089,83.4133 76.7089,85.08 74.5,86.5C 72.8212,86.2852 71.8212,86.9519 71.5,88.5C 70.4863,89.6737 69.153,90.3404 67.5,90.5C 64.8333,90.5 62.1667,90.5 59.5,90.5C 59.5,91.8333 59.5,93.1667 59.5,94.5C 55.1667,94.5 50.8333,94.5 46.5,94.5C 46.9443,92.8868 47.9443,91.7202 49.5,91C 59.9365,87.8643 70.1032,84.031 80,79.5C 80.4643,80.0944 80.631,80.7611 80.5,81.5 Z"/></g>
<g><path style="opacity:0.956" fill="#572aff" d="M 89.5,77.5 C 90.2719,78.6935 91.2719,79.6935 92.5,80.5C 94.1449,84.145 96.8116,86.8116 100.5,88.5C 101.833,89.1667 103.167,89.8333 104.5,90.5C 104.833,91.1667 105.167,91.8333 105.5,92.5C 105.229,94.4305 104.229,95.7638 102.5,96.5C 95.3709,99.632 90.7043,104.965 88.5,112.5C 86.8333,112.5 85.1667,112.5 83.5,112.5C 80.6394,104.137 75.1394,98.1371 67,94.5C 66.4209,93.0715 66.5876,91.7382 67.5,90.5C 69.153,90.3404 70.4863,89.6737 71.5,88.5C 72.7095,88.0679 73.7095,87.4013 74.5,86.5C 76.7089,85.08 78.7089,83.4133 80.5,81.5C 82.8333,81.5 85.1667,81.5 87.5,81.5C 87.7733,79.549 87.1066,78.049 85.5,77C 87.0771,75.07 88.4104,75.2367 89.5,77.5 Z"/></g>
<g><path style="opacity:0.063" fill="#9e5fff" d="M 104.5,83.5 C 104.5,85.8333 104.5,88.1667 104.5,90.5C 103.167,89.8333 101.833,89.1667 100.5,88.5C 100.5,86.8333 100.5,85.1667 100.5,83.5C 101.833,83.5 103.167,83.5 104.5,83.5 Z"/></g>
<g><path style="opacity:0.055" fill="#a15dfe" d="M 109.5,83.5 C 110.833,83.5 112.167,83.5 113.5,83.5C 113.5,86.5 113.5,89.5 113.5,92.5C 112.167,92.5 110.833,92.5 109.5,92.5C 109.5,89.5 109.5,86.5 109.5,83.5 Z"/></g>
<g><path style="opacity:0.056" fill="#0696ff" d="M 24.5,77.5 C 26.5735,78.2995 28.2402,79.6329 29.5,81.5C 29.5,81.8333 29.5,82.1667 29.5,82.5C 29.5,83.8333 29.5,85.1667 29.5,86.5C 26.8333,86.5 24.1667,86.5 21.5,86.5C 21.5,87.8333 21.5,89.1667 21.5,90.5C 18.8333,90.5 16.1667,90.5 13.5,90.5C 13.5,91.8333 13.5,93.1667 13.5,94.5C 11.5168,94.1568 10.1834,94.8235 9.5,96.5C 7.83333,96.5 6.16667,96.5 4.5,96.5C 4.35055,95.448 4.51722,94.448 5,93.5C 7.21984,90.979 9.71984,88.8123 12.5,87C 11.1807,86.805 9.84736,86.9717 8.5,87.5C 9.18342,85.8235 10.5168,85.1568 12.5,85.5C 12.5,84.5 12.5,83.5 12.5,82.5C 13.1667,82.5 13.5,82.1667 13.5,81.5C 15.8333,81.5 18.1667,81.5 20.5,81.5C 20.5,80.1667 20.5,78.8333 20.5,77.5C 21.8333,77.5 23.1667,77.5 24.5,77.5 Z"/></g>
<g><path style="opacity:0.71" fill="#0a9eff" d="M 104.5,83.5 C 106.167,83.5 107.833,83.5 109.5,83.5C 109.5,86.5 109.5,89.5 109.5,92.5C 108.167,92.5 106.833,92.5 105.5,92.5C 105.167,91.8333 104.833,91.1667 104.5,90.5C 104.5,88.1667 104.5,85.8333 104.5,83.5 Z"/></g>
<g><path style="opacity:0.05" fill="#b460fe" d="M 105.5,92.5 C 106.833,92.5 108.167,92.5 109.5,92.5C 109.5,93.8333 109.5,95.1667 109.5,96.5C 107.167,96.5 104.833,96.5 102.5,96.5C 104.229,95.7638 105.229,94.4305 105.5,92.5 Z"/></g>
<g><path style="opacity:0.004" fill="#fe00ff" d="M 109.5,92.5 C 110.833,92.5 112.167,92.5 113.5,92.5C 113.833,95.5 112.5,96.8333 109.5,96.5C 109.5,95.1667 109.5,93.8333 109.5,92.5 Z"/></g>
<g><path style="opacity:0.344" fill="#00a0ff" d="M -0.5,93.5 C 0.166667,93.5 0.833333,93.5 1.5,93.5C 1.17798,95.7224 1.84464,97.5557 3.5,99C 10.5095,99.4226 17.5095,99.2559 24.5,98.5C 25.1667,98.5 25.5,98.1667 25.5,97.5C 29.4918,96.5034 33.4918,95.5034 37.5,94.5C 38.3624,95.7658 39.0291,97.0992 39.5,98.5C 37.8333,98.5 36.1667,98.5 34.5,98.5C 34.5,99.8333 34.5,101.167 34.5,102.5C 22.8333,102.5 11.1667,102.5 -0.5,102.5C -0.5,99.5 -0.5,96.5 -0.5,93.5 Z"/></g>
<g><path style="opacity:1" fill="#216aff" d="M 112.5,56.5 C 112.649,57.552 112.483,58.552 112,59.5C 106.007,66.0884 98.8402,71.0884 90.5,74.5C 89.6143,75.325 89.281,76.325 89.5,77.5C 88.4104,75.2367 87.0771,75.07 85.5,77C 87.1066,78.049 87.7733,79.549 87.5,81.5C 85.1667,81.5 82.8333,81.5 80.5,81.5C 80.631,80.7611 80.4643,80.0944 80,79.5C 70.1032,84.031 59.9365,87.8643 49.5,91C 47.9443,91.7202 46.9443,92.8868 46.5,94.5C 46.5,95.8333 46.5,97.1667 46.5,98.5C 44.0897,99.4385 41.7564,99.4385 39.5,98.5C 39.0291,97.0992 38.3624,95.7658 37.5,94.5C 33.4918,95.5034 29.4918,96.5034 25.5,97.5C 24.8333,97.5 24.5,97.8333 24.5,98.5C 17.5095,99.2559 10.5095,99.4226 3.5,99C 1.84464,97.5557 1.17798,95.7224 1.5,93.5C 2.89903,90.436 5.23236,88.436 8.5,87.5C 9.84736,86.9717 11.1807,86.805 12.5,87C 9.71984,88.8123 7.21984,90.979 5,93.5C 4.51722,94.448 4.35055,95.448 4.5,96.5C 6.16667,96.5 7.83333,96.5 9.5,96.5C 18.6038,96.3198 27.2704,94.6532 35.5,91.5C 41.0994,91.1883 46.4327,89.8549 51.5,87.5C 70.5079,81.4905 88.1745,73.1572 104.5,62.5C 106.479,61.1879 108.145,59.5212 109.5,57.5C 105.893,56.5108 102.226,56.1774 98.5,56.5C 100.607,54.3485 103.274,53.3485 106.5,53.5C 109.308,53.0777 111.308,54.0777 112.5,56.5 Z"/></g>
</svg>
